<?xml version="1.0" encoding="utf-8"?>
<!-- Generator: Adobe Illustrator 27.5.0, SVG Export Plug-In . SVG Version: 6.00 Build 0)  -->
<svg version="1.1" xmlns="http://www.w3.org/2000/svg" xmlns:xlink="http://www.w3.org/1999/xlink" x="0px" y="0px"
	 viewBox="0 0 500 500" style="enable-background:new 0 0 500 500;" xml:space="preserve">
<g id="Background_Complete">
	<g>
		<path style="fill:#EBEBEB;" d="M301.523,245.599c-0.975-2.602-1.969-5.24-3.608-7.483c-1.639-2.243-4.034-4.08-6.792-4.418
			c-2.758-0.338-5.813,1.151-6.711,3.78c-0.396-5.924-1.235-12.002-4.201-17.145c-2.965-5.144-8.498-9.184-14.424-8.822
			c-5.588,0.342-10.372,4.493-13.03,9.419c-2.658,4.927-3.571,10.578-4.443,16.108c-2.118-2.599-6.591-1.782-8.801,0.739
			c-2.21,2.521-2.77,6.045-3.24,9.364l66.019,0.688L301.523,245.599z"/>
	</g>
	<g>
		<path style="fill:#EBEBEB;" d="M479.803,165.149c-0.975-2.602-1.969-5.24-3.608-7.483c-1.639-2.243-4.034-4.081-6.792-4.418
			c-2.758-0.338-5.813,1.151-6.711,3.78c-0.396-5.924-1.235-12.002-4.201-17.145c-2.965-5.144-8.498-9.184-14.424-8.822
			c-5.588,0.342-10.372,4.492-13.03,9.419c-2.658,4.927-3.571,10.578-4.443,16.108c-2.118-2.599-6.591-1.782-8.801,0.739
			c-2.211,2.521-2.771,6.044-3.24,9.364l66.019,0.688L479.803,165.149z"/>
	</g>
	<g>
		<path style="fill:#EBEBEB;" d="M460.098,351.51c-1.723-4.6-3.481-9.264-6.379-13.231c-2.898-3.966-7.133-7.215-12.009-7.812
			c-4.876-0.597-10.278,2.035-11.866,6.683c-0.699-10.474-2.184-21.221-7.427-30.316c-5.243-9.095-15.026-16.239-25.504-15.599
			c-9.88,0.604-18.339,7.943-23.039,16.654c-4.7,8.711-6.314,18.703-7.857,28.481c-3.745-4.596-11.653-3.151-15.562,1.306
			c-3.908,4.457-4.898,10.688-5.729,16.557l116.731,1.216L460.098,351.51z"/>
	</g>
	<g>
		<path style="fill:#EBEBEB;" d="M117.756,208.292c-1.229-3.28-2.482-6.606-4.549-9.435c-2.067-2.828-5.087-5.145-8.564-5.571
			c-3.477-0.426-7.329,1.451-8.462,4.766c-0.499-7.469-1.557-15.132-5.296-21.618c-3.739-6.485-10.715-11.58-18.187-11.123
			c-7.045,0.431-13.077,5.664-16.429,11.876c-3.352,6.212-4.502,13.337-5.603,20.309c-2.671-3.277-8.31-2.247-11.097,0.931
			c-2.787,3.178-3.493,7.621-4.086,11.807l83.24,0.867L117.756,208.292z"/>
	</g>
	<g>
		<path style="fill:#EBEBEB;" d="M185.389,472.414c-1.633-4.36-3.299-8.781-6.046-12.54c-2.747-3.759-6.761-6.839-11.383-7.404
			c-4.621-0.566-9.742,1.929-11.247,6.334c-0.663-9.928-2.07-20.114-7.04-28.734c-4.969-8.62-14.242-15.392-24.174-14.785
			c-9.365,0.573-17.382,7.529-21.837,15.785c-4.455,8.257-5.984,17.728-7.447,26.995c-3.55-4.356-11.045-2.987-14.75,1.238
			c-3.704,4.225-4.643,10.13-5.43,15.693l110.641,1.153L185.389,472.414z"/>
	</g>
	<g>
		<path style="fill:#F5F5F5;" d="M444.386,259.398c-0.779-2.08-1.574-4.19-2.885-5.984c-1.311-1.794-3.226-3.263-5.431-3.533
			c-2.205-0.27-4.648,0.92-5.367,3.022c-0.316-4.737-0.988-9.597-3.359-13.71c-2.371-4.113-6.796-7.344-11.534-7.055
			c-4.468,0.273-8.294,3.592-10.419,7.532c-2.126,3.94-2.855,8.458-3.553,12.88c-1.694-2.078-5.27-1.425-7.038,0.591
			c-1.767,2.016-2.215,4.833-2.591,7.488L445,261.18L444.386,259.398z"/>
	</g>
	<g>
		<path style="fill:#F5F5F5;" d="M268.786,314.969c-0.779-2.08-1.574-4.19-2.885-5.984c-1.311-1.794-3.226-3.263-5.431-3.533
			c-2.205-0.27-4.648,0.92-5.367,3.022c-0.316-4.737-0.988-9.597-3.359-13.71c-2.371-4.113-6.796-7.344-11.534-7.055
			c-4.468,0.273-8.294,3.592-10.419,7.532c-2.126,3.94-2.855,8.458-3.553,12.88c-1.694-2.078-5.27-1.425-7.038,0.591
			c-1.768,2.016-2.215,4.833-2.591,7.488l52.791,0.55L268.786,314.969z"/>
	</g>
	<g>
		<path style="fill:#F5F5F5;" d="M432.511,416.156c-0.779-2.081-1.574-4.19-2.885-5.984c-1.311-1.794-3.226-3.263-5.431-3.533
			c-2.205-0.27-4.648,0.92-5.367,3.022c-0.316-4.737-0.988-9.597-3.359-13.71c-2.371-4.113-6.796-7.344-11.534-7.055
			c-4.468,0.273-8.293,3.592-10.419,7.532c-2.126,3.94-2.855,8.458-3.553,12.88c-1.694-2.078-5.27-1.425-7.038,0.591
			c-1.768,2.016-2.215,4.833-2.591,7.488l52.791,0.55L432.511,416.156z"/>
	</g>
	<g>
		<path style="fill:#F5F5F5;" d="M279.197,483.33c-0.779-2.08-1.574-4.19-2.885-5.983c-1.311-1.794-3.226-3.263-5.431-3.533
			c-2.205-0.27-4.648,0.92-5.366,3.022c-0.316-4.737-0.988-9.597-3.359-13.71c-2.371-4.113-6.796-7.344-11.534-7.055
			c-4.468,0.273-8.293,3.592-10.419,7.532c-2.126,3.94-2.855,8.458-3.553,12.88c-1.694-2.078-5.27-1.425-7.038,0.591
			c-1.768,2.016-2.215,4.833-2.591,7.488l52.791,0.55L279.197,483.33z"/>
	</g>
	<g>
		<path style="fill:#F5F5F5;" d="M351.547,81.429c-1.337-3.57-2.701-7.19-4.95-10.268c-2.249-3.078-5.536-5.599-9.32-6.062
			c-3.784-0.463-7.976,1.579-9.209,5.186c-0.543-8.129-1.695-16.469-5.764-23.527c-4.069-7.058-11.661-12.603-19.793-12.106
			c-7.668,0.469-14.232,6.164-17.88,12.925c-3.648,6.76-4.9,14.515-6.097,22.103c-2.906-3.566-9.044-2.446-12.077,1.014
			c-3.033,3.459-3.801,8.294-4.446,12.85l90.59,0.944L351.547,81.429z"/>
	</g>
	<g>
		<path style="fill:#F5F5F5;" d="M67.639,364.359c-0.779-2.08-1.574-4.19-2.885-5.983c-1.311-1.794-3.226-3.263-5.431-3.533
			c-2.205-0.27-4.648,0.92-5.367,3.022c-0.316-4.737-0.988-9.597-3.359-13.71c-2.371-4.113-6.795-7.344-11.534-7.055
			c-4.468,0.273-8.294,3.592-10.419,7.532c-2.126,3.94-2.855,8.458-3.553,12.88c-1.694-2.078-5.27-1.425-7.038,0.591
			c-1.767,2.016-2.215,4.833-2.591,7.488l52.791,0.55L67.639,364.359z"/>
	</g>
</g>
<g id="Background_Simple" style="display:none;">
	<path style="display:inline;fill:#F5F5F5;" d="M74.747,174.111l1.581-3.651c13.329-30.778,42.14-52.191,75.285-54.634
		c4.261-0.314,8.545-0.321,12.817-0.004c30.756,2.284,59.861,21.3,74.618,48.752c8.679,16.145,13.145,35.494,27.03,47.347
		c18.07,15.426,44.717,12.321,67.979,8.378c23.261-3.943,49.936-6.98,67.939,8.525c11.275,9.71,16.538,25.002,17.788,39.912
		c3.31,39.476-19.176,78.274-51.508,100.47c-32.332,22.196-73.006,29.382-112.068,26.95
		c-54.722-3.407-109.413-25.915-146.113-67.253C73.394,287.564,57.157,226.599,74.747,174.111z"/>
</g>
<g id="Cat">
	<g>
		<g>
			<g>
				<path style="fill:#263238;" d="M304.956,177.577c0,0,0.034,0.157,0.075,0.466c0.041,0.332,0.096,0.788,0.168,1.374
					c0.139,1.234,0.339,3.011,0.596,5.289c0.248,2.298,0.557,5.108,0.948,8.367c0.385,3.26,0.796,6.975,1.322,11.073
					c0.996,8.203,2.298,17.956,3.847,28.771c1.579,10.81,3.425,22.679,5.544,35.106c2.141,12.428,4.352,24.237,6.459,34.959
					c2.136,10.716,4.148,20.348,5.928,28.417c1.77,8.071,3.245,14.594,4.296,19.094c0.511,2.234,0.91,3.978,1.186,5.188
					c0.126,0.577,0.224,1.026,0.296,1.352c0.064,0.305,0.083,0.465,0.083,0.465s-0.054-0.151-0.135-0.453
					c-0.084-0.324-0.198-0.768-0.346-1.34c-0.299-1.205-0.73-2.941-1.282-5.166c-1.112-4.486-2.642-10.998-4.459-19.061
					c-1.826-8.061-3.877-17.689-6.039-28.403c-2.134-10.72-4.36-22.531-6.502-34.964c-2.121-12.433-3.953-24.308-5.506-35.126
					c-1.524-10.822-2.788-20.584-3.738-28.795c-0.503-4.102-0.888-7.821-1.246-11.085c-0.363-3.263-0.644-6.077-0.86-8.378
					c-0.215-2.282-0.382-4.063-0.499-5.3c-0.05-0.588-0.088-1.046-0.117-1.38C304.955,177.738,304.956,177.577,304.956,177.577z"/>
			</g>
			<g>
				<g>
					<g>
						<g>
							<g>
								<g>
									<g>
										<g>
											<g>
												<g>
													<path style="fill:#455A64;" d="M313.837,260.667c-21.954-6.056-43.104-23.386-58.54-40.131
														c-15.435-16.745-24.646-39.929-21.658-62.506c2.988-22.577,19.44-43.614,41.542-49.104
														c23.67-5.88,49.482,6.954,63.04,27.228c13.557,20.274,12.81,51.111,4.143,73.908
														C332.576,235.809,330.134,244.122,313.837,260.667"/>
												</g>
											</g>
										</g>
									</g>
								</g>
							</g>
						</g>
						<g style="opacity:0.3;">
							<path d="M318.518,117.054c-5.103-2.976-5.103-2.976-5.103-2.976c-5.227,11.099-6.497,23.819-4.821,35.972
								c1.676,12.153,6.185,23.784,12.018,34.577c5.616,10.391,10.89,24.439,18.813,33.198l8.838-23.776
								C348.262,194.05,323.621,120.03,318.518,117.054z"/>
						</g>
						<g>
							<g>
								<g>
									<g>
										<g>
											<g>
												<g>
													<path style="fill:#455A64;" d="M323.25,262.879c-3.477-2.161-6.664-4.979-8.536-8.62l-1.583,2.702
														c-1.903,2.814-2.49,9.547-2.393,12.943c0.028,0.981,0.308,2.168,1.248,2.448c1.002,0.297,1.928-0.699,2.291-1.679
														c0.363-0.98,0.499-2.11,1.246-2.84c0.221,1.068,0.46,2.174,1.118,3.044c0.658,0.87,1.863,1.428,2.865,0.999
														c1.02-0.436,1.441-1.729,1.238-2.82c-0.203-1.09-0.88-2.025-1.538-2.919c1.06,0.863,2.194,1.758,3.548,1.946
														c1.354,0.188,2.949-0.654,3.049-2.017C325.908,264.634,324.47,263.637,323.25,262.879z"/>
												</g>
											</g>
										</g>
									</g>
								</g>
							</g>
						</g>
						<g>
							<g>
								<g>
									<g>
										<g>
											<g>
												<g>
													<g>
														<path style="fill:#263238;" d="M317.466,256.838c0.318,0.129-0.391,1.916-2.414,2.825
															c-2.017,0.924-3.829,0.28-3.716-0.044c0.062-0.357,1.583-0.352,3.193-1.109
															C316.158,257.798,317.157,256.65,317.466,256.838z"/>
													</g>
												</g>
											</g>
										</g>
									</g>
								</g>
							</g>
						</g>
					</g>
				</g>
				<g style="opacity:0.2;">
					<g>
						<g>
							<g>
								<g>
									<g>
										<path d="M336.142,147.572c-2.523-0.866-5.386,0.854-5.323,3.879l-0.026-0.148c0.202,2.318,0.7,4.995,1.993,6.93
											c1.293,1.935,4.009,3.131,6.023,1.965c2.073-1.201,2.346-4.11,1.851-6.455
											C340.108,151.132,338.666,148.439,336.142,147.572z"/>
									</g>
								</g>
							</g>
						</g>
					</g>
				</g>
				<g>
					<g>
						<g>
							<g>
								<g>
									<g>
										<path style="fill:#FFFFFF;" d="M254.431,124.131c0.015,0.016-0.123,0.181-0.398,0.481
											c-0.328,0.346-0.732,0.771-1.221,1.287c-0.274,0.282-0.571,0.588-0.892,0.918c-0.316,0.345-0.634,0.743-0.991,1.156
											c-0.697,0.841-1.549,1.748-2.335,2.878c-0.41,0.553-0.839,1.13-1.284,1.73c-0.442,0.605-0.836,1.28-1.281,1.952
											c-0.915,1.331-1.713,2.862-2.596,4.447c-1.644,3.232-3.193,6.92-4.371,10.939c-1.129,4.035-1.768,7.984-2.084,11.597
											c-0.09,1.811-0.223,3.533-0.152,5.147c0.021,0.806-0.002,1.588,0.053,2.335c0.06,0.745,0.118,1.462,0.174,2.148
											c0.069,1.374,0.312,2.595,0.458,3.678c0.083,0.539,0.143,1.045,0.228,1.505c0.097,0.45,0.187,0.867,0.27,1.251
											c0.142,0.697,0.259,1.271,0.354,1.738c0.074,0.4,0.104,0.613,0.083,0.619c-0.021,0.006-0.09-0.196-0.204-0.586
											c-0.126-0.461-0.282-1.028-0.47-1.716c-0.1-0.383-0.208-0.798-0.325-1.246c-0.104-0.459-0.18-0.965-0.281-1.505
											c-0.18-1.083-0.455-2.31-0.553-3.692c-0.069-0.692-0.141-1.413-0.215-2.163c-0.068-0.753-0.057-1.541-0.09-2.354
											c-0.094-1.629,0.02-3.368,0.096-5.199c0.287-3.652,0.916-7.648,2.058-11.727c1.19-4.063,2.773-7.785,4.462-11.035
											c0.905-1.594,1.729-3.129,2.671-4.461c0.458-0.673,0.866-1.347,1.322-1.95c0.46-0.597,0.903-1.171,1.328-1.721
											c0.815-1.121,1.697-2.016,2.424-2.84c0.372-0.405,0.704-0.793,1.035-1.128c0.336-0.318,0.648-0.613,0.935-0.885
											c0.524-0.484,0.956-0.883,1.308-1.208C254.25,124.249,254.416,124.115,254.431,124.131z"/>
									</g>
								</g>
							</g>
						</g>
					</g>
				</g>
				<g>
					<g>
						<g>
							<g>
								<g>
									<g>
										<path style="fill:#FFFFFF;" d="M271.749,115.227c0.07,0.158-2.068,1.262-4.774,2.467
											c-2.707,1.205-4.958,2.054-5.029,1.896c-0.07-0.157,2.067-1.262,4.775-2.467
											C269.428,115.919,271.679,115.07,271.749,115.227z"/>
									</g>
								</g>
							</g>
						</g>
					</g>
				</g>
				<g style="opacity:0.1;">
					<g>
						<g>
							<g>
								<g>
									<g>
										<g>
											<g>
												<path style="fill:#FFFFFF;" d="M259.339,126.208c-19.811,17.812-22.42,42.845-10.922,66.877
													c3.668,7.665,9.198,14.832,17.661,17.478c2.227,0.697,4.594,0.973,6.918,0.758c11.818-1.094,15.894-12.116,15.349-21.81
													c-0.404-7.176-2.851-14.064-4.141-21.134c-1.29-7.071-1.269-14.883,2.77-20.828c4.013-5.906,11.747-9.689,10.913-17.81
													c-0.401-3.905-2.928-7.262-6.297-9.278c-2.715-1.624-5.587-2.439-8.53-2.755c-7.639-0.819-15.253,1.807-21.28,6.571
													L259.339,126.208z"/>
											</g>
										</g>
									</g>
								</g>
							</g>
						</g>
					</g>
				</g>
			</g>
		</g>
		<g>
			<g>
				<path style="fill:#263238;" d="M369.657,176.025c0.141,0.027-7.427,41.112-16.902,91.754
					c-9.479,50.66-17.275,91.694-17.416,91.667c-0.141-0.026,7.426-41.103,16.904-91.763
					C361.718,217.041,369.516,175.999,369.657,176.025z"/>
			</g>
			<g>
				<g>
					<g>
						<g>
							<g>
								<g>
									<g>
										<g>
											<g>
												<g>
													<path style="fill:#FF725E;" d="M359.013,226.665c-19.554-17.742-32.383-46.731-39.605-72.127
														c-7.221-25.396-4.635-54.203,10.258-76.005C344.559,56.73,372.58,43.56,398.322,49.43
														c27.568,6.287,47.572,33.06,51.006,61.127c3.433,28.067-13.458,59.588-34.343,78.65
														C391.398,210.735,384.526,218.061,359.013,226.665"/>
												</g>
											</g>
										</g>
									</g>
								</g>
							</g>
						</g>
						<g>
							<g>
								<g>
									<g>
										<g>
											<g>
												<g>
													<path style="fill:#FF725E;" d="M367.598,233.874c-2.469-4.054-4.294-8.636-4.328-13.382l-3.051,1.969
														c-3.44,1.917-7.567,8.579-9.242,12.144c-0.484,1.03-0.815,2.404,0.013,3.185c0.881,0.831,2.361,0.284,3.249-0.54
														c0.888-0.824,1.619-1.923,2.773-2.288c-0.329,1.221-0.66,2.49-0.434,3.734c0.226,1.244,1.181,2.452,2.443,2.532
														c1.284,0.082,2.395-1.036,2.755-2.271c0.36-1.235,0.148-2.556-0.066-3.824c0.646,1.447,1.352,2.966,2.654,3.868
														c1.303,0.902,3.393,0.864,4.21-0.494C369.432,237.08,368.464,235.296,367.598,233.874z"/>
												</g>
											</g>
										</g>
									</g>
								</g>
							</g>
						</g>
						<g>
							<g>
								<g>
									<g>
										<g>
											<g>
												<g>
													<g>
														<path style="fill:#263238;" d="M364.77,224.6c0.262,0.3-1.407,1.779-3.975,1.661c-2.57-0.098-4.109-1.711-3.823-1.988
															c0.251-0.337,1.823,0.463,3.884,0.521C362.914,224.909,364.548,224.243,364.77,224.6z"/>
													</g>
												</g>
											</g>
										</g>
									</g>
								</g>
							</g>
						</g>
					</g>
				</g>
				<g style="opacity:0.2;">
					<g>
						<g>
							<g>
								<g>
									<g>
										<path d="M435.235,146.786c-1.236-1.337-3.229-1.641-4.923-0.974c-3.198,1.26-4.603,4.324-6.028,7.169
											c-11.431,22.828-32.119,40.851-56.298,49.045c-3.513,1.191-7.746,2.92-8.163,6.606c-0.309,2.735,1.907,5.246,4.482,6.217
											c1.717,0.647,4.109,1.055,7.112,0.633c2.453-0.344,4.807-1.221,6.941-2.478c25.283-14.884,41.278-32.336,56.109-58.062
											C435.935,152.4,437.296,149.014,435.235,146.786z"/>
									</g>
								</g>
							</g>
						</g>
					</g>
				</g>
				<g style="opacity:0.2;">
					<g>
						<g>
							<g>
								<g>
									<g>
										<path d="M441.208,121.286c-2.158-2.215-6.02-1.931-7.536,1.232l0.05-0.167c-1.002,2.505-1.887,5.535-1.56,8.213
											c0.327,2.678,2.512,5.336,5.206,5.181c2.774-0.159,4.577-3.027,5.29-5.712
											C443.452,127.044,443.367,123.502,441.208,121.286z"/>
									</g>
								</g>
							</g>
						</g>
					</g>
				</g>
				<g>
					<g>
						<g>
							<g>
								<g>
									<g>
										<path style="fill:#FFFFFF;" d="M368.901,54.319c0.007,0.024-0.222,0.123-0.663,0.29c-0.52,0.187-1.16,0.415-1.936,0.694
											c-0.431,0.149-0.898,0.31-1.403,0.484c-0.507,0.192-1.044,0.437-1.629,0.678c-1.16,0.506-2.517,1-3.92,1.757
											c-0.714,0.358-1.459,0.731-2.234,1.119c-0.774,0.394-1.534,0.887-2.346,1.351c-1.643,0.9-3.269,2.067-5.01,3.245
											c-3.391,2.486-6.921,5.492-10.241,9.036c-3.277,3.586-6.003,7.339-8.218,10.912c-1.04,1.827-2.078,3.539-2.848,5.247
											c-0.4,0.845-0.832,1.642-1.165,2.444c-0.327,0.802-0.642,1.574-0.943,2.314c-0.647,1.458-1.034,2.849-1.449,4.045
											c-0.195,0.602-0.399,1.156-0.55,1.677c-0.134,0.516-0.259,0.995-0.374,1.436c-0.217,0.795-0.396,1.451-0.542,1.984
											c-0.132,0.453-0.213,0.688-0.238,0.683c-0.024-0.005,0.009-0.25,0.095-0.713c0.11-0.543,0.246-1.211,0.411-2.022
											c0.097-0.448,0.201-0.935,0.315-1.459c0.133-0.529,0.318-1.092,0.496-1.704c0.38-1.215,0.737-2.628,1.358-4.11
											c0.29-0.752,0.593-1.536,0.908-2.351c0.322-0.815,0.746-1.624,1.138-2.483c0.754-1.736,1.781-3.475,2.817-5.33
											c2.206-3.629,4.945-7.436,8.259-11.06c3.355-3.583,6.939-6.607,10.385-9.088c1.77-1.176,3.424-2.335,5.096-3.221
											c0.826-0.457,1.6-0.941,2.388-1.326c0.788-0.377,1.547-0.739,2.274-1.087c1.429-0.734,2.81-1.199,3.992-1.672
											c0.596-0.225,1.144-0.453,1.66-0.626c0.514-0.153,0.991-0.296,1.431-0.427c0.796-0.227,1.451-0.414,1.984-0.566
											C368.652,54.347,368.895,54.295,368.901,54.319z"/>
									</g>
								</g>
							</g>
						</g>
					</g>
				</g>
				<g>
					<g>
						<g>
							<g>
								<g>
									<g>
										<path style="fill:#FFFFFF;" d="M391.477,54.157c-0.01,0.2-2.799,0.226-6.23,0.058c-3.432-0.168-6.205-0.466-6.195-0.666
											c0.01-0.2,2.799-0.226,6.231-0.058C388.713,53.66,391.487,53.958,391.477,54.157z"/>
									</g>
								</g>
							</g>
						</g>
					</g>
				</g>
				<g style="opacity:0.1;">
					<g>
						<g>
							<g>
								<g>
									<g>
										<g>
											<g>
												<path style="fill:#FFFFFF;" d="M372.894,59.034c-29.811,8.078-45.596,32.62-46.258,63.5
													c-0.211,9.85,1.766,20.157,9.141,27.318c1.941,1.885,4.246,3.408,6.764,4.4c12.802,5.045,22.78-4.231,27.283-14.547
													c3.333-7.637,4.401-16.044,6.762-24.035c2.361-7.992,6.466-16.065,13.753-20.106c7.24-4.015,17.221-3.887,20.603-12.727
													c1.626-4.25,0.765-9.046-1.668-12.892c-1.961-3.1-4.507-5.445-7.388-7.31c-7.478-4.84-16.729-6.102-25.456-4.322
													L372.894,59.034z"/>
											</g>
										</g>
									</g>
								</g>
							</g>
						</g>
					</g>
				</g>
			</g>
		</g>
		<g>
			<g>
				<g>
					<g>
						<path style="fill:#FF725E;" d="M445.088,445.67c-0.268-0.402-0.594-0.813-1.059-0.943c-0.719-0.201-1.465,0.392-1.707,1.098
							c-0.242,0.706-0.115,1.478,0.014,2.213c-2.004-2.782-5.384-4.4-8.801-4.671c-3.417-0.271-6.853,0.707-9.873,2.329
							c-2.448,1.315-4.664,3.047-7.179,4.228c-2.131,1-4.603,1.56-6.859,1.037c-0.233-0.079-0.472-0.139-0.703-0.226
							c-5.476-2.053-10.201-6.466-11.866-12.073c-1.62-5.453,0.23-11.195,1.037-16.827c1.21-8.434,5.065-31.681-0.339-44.303
							l-10.867,29.896c-5.592,11.141-8.22,20.674-7.693,33.129c0.527,12.455,7.784,24.229,18.469,30.651
							c11.561,6.949,32.355,9.785,43.396-0.629c0.019-0.018,0.033-0.036,0.05-0.055c0.505-0.486,0.973-1.012,1.412-1.565
							c2.307-2.55,4.046-4.682,4.164-8.44c0.004-0.124-0.002-0.248-0.002-0.372C447.935,455.246,447.868,449.837,445.088,445.67z"/>
					</g>
				</g>
				<g>
					<path style="fill:#263238;" d="M430.294,457.954c0.012,0.008-0.046,0.114-0.17,0.311c-0.121,0.198-0.321,0.479-0.604,0.825
						c-0.565,0.69-1.491,1.635-2.865,2.541c-1.368,0.909-3.179,1.766-5.33,2.383c-2.148,0.631-4.614,1.027-7.248,1.405l0.015-0.489
						c2.376,0.484,4.926,1.183,7.489,2.136c1.822,0.671,3.553,1.442,5.169,2.252l0.697,0.35l-0.768,0.129
						c-5.82,0.974-11.016,0.801-14.648,0.351c-1.821-0.221-3.263-0.49-4.246-0.707c-0.493-0.103-0.868-0.206-1.123-0.272
						c-0.254-0.068-0.385-0.111-0.381-0.126c0.007-0.033,0.548,0.059,1.537,0.224c0.99,0.162,2.433,0.379,4.248,0.555
						c3.62,0.358,8.769,0.464,14.528-0.526l-0.072,0.478c-1.603-0.795-3.318-1.554-5.122-2.219
						c-2.536-0.943-5.057-1.643-7.408-2.137l-1.403-0.295l1.418-0.195c2.636-0.362,5.08-0.73,7.203-1.321
						c2.126-0.577,3.911-1.38,5.277-2.236C429.235,459.638,430.222,457.877,430.294,457.954z"/>
				</g>
			</g>
			<g>
				<path style="fill:#FF725E;" d="M343.252,397.159c-9.635,7.077-13.415,18.564-9.867,29.982c1.451,4.669,4.017,9.84,1.495,13.621
					c-1.185,1.775-3.381,2.98-4.525,4.776c-1.144,1.795-0.645,4.727,2.077,5.83c1.902,0.771,3.932,0.274,5.541-0.376
					c7.189-2.905,11.603-8.369,15.656-13.732c7.44-9.846,14.432-19.931,20.964-30.235L343.252,397.159z"/>
				<g style="opacity:0.3;">
					<path d="M343.252,397.159c-9.635,7.077-13.415,18.564-9.867,29.982c1.451,4.669,4.017,9.84,1.495,13.621
						c-1.185,1.775-3.381,2.98-4.525,4.776c-1.144,1.795-0.645,4.727,2.077,5.83c1.902,0.771,3.932,0.274,5.541-0.376
						c7.189-2.905,11.603-8.369,15.656-13.732c7.44-9.846,14.432-19.931,20.964-30.235L343.252,397.159z"/>
				</g>
				<path style="fill:#FF725E;" d="M350.186,336.618c-66.668-24.404-85.798,30.577-85.798,30.577l26.697,29.123
					c38.608,14.357,58.919,10.817,64.709,23.285c5.79,12.468,17.135,12.453,17.135,12.453l12.693-9.718
					C403.678,406.978,415.081,360.373,350.186,336.618z"/>
				<path style="fill:#FF725E;" d="M386.522,421.489l-33.275-20.902c-6.409,6.475-10.3,24.819-8.398,37.894
					c0.245,1.685-0.481,5.732-0.204,7.419c0.411,2.514-0.564,6.232-2.266,8.085c-2.372,2.582-5.143,3.809-5.661,7.147
					c-0.482,3.113,0.326,7.092,5.011,8.776c0.771,0.277,1.583,0.443,2.379,0.512c3.206,0.275,5.747-0.753,8.007-1.954
					c7.851-4.17,12.722-12.039,12.722-12.039c3.001-4.075,3.653-11.981,6.169-18.793C373.58,430.66,379.642,428.098,386.522,421.489
					z"/>
				<path style="fill:#263238;" d="M341.455,333.791c-3.683-1.386-11.03-2.806-16.584-2.008c7.303,4.167,12.41,10.479,13.459,12.551
					c12.129,23.96,4.955,40.731-8.105,63.338c3.658,1.424,7.645,2.351,11.936,2.818
					C353.223,388.009,363.079,349.687,341.455,333.791z"/>
				<g style="opacity:0.3;">
					<path d="M357.471,392.948c-6.689,3.883-10.411,11.223-10.54,18.449c1.639-4.468,4.345-8.683,8.197-12.626
						c5.879-6.309,16.998-7.026,26.709-8.517C373.312,388.052,364.159,389.064,357.471,392.948z"/>
				</g>
				<g>
					<path style="fill:#263238;" d="M365.26,393.344c0.005,0.017-0.214,0.109-0.636,0.268c-0.419,0.166-1.051,0.367-1.841,0.686
						c-1.56,0.677-3.819,1.718-6.23,3.576c-2.387,1.858-4.955,4.507-6.896,8.03c-1.011,1.733-1.842,3.682-2.531,5.754
						c-0.692,2.071-1.22,4.283-1.534,6.581c-0.649,4.603-0.654,9.058-0.622,13.096c0.047,4.042,0.137,7.689,0.063,10.753
						c-0.068,3.064-0.25,5.542-0.486,7.241c-0.089,0.852-0.23,1.505-0.299,1.95c-0.079,0.444-0.129,0.675-0.147,0.673
						c-0.018-0.003-0.002-0.24,0.044-0.688c0.035-0.449,0.145-1.104,0.202-1.957c0.173-1.699,0.298-4.169,0.319-7.224
						c0.026-3.055-0.101-6.694-0.174-10.742c-0.058-4.045-0.069-8.522,0.587-13.176c0.319-2.327,0.857-4.569,1.566-6.668
						c0.705-2.099,1.559-4.075,2.598-5.83c1.996-3.568,4.639-6.24,7.09-8.086c2.476-1.847,4.785-2.847,6.379-3.471
						c0.807-0.291,1.453-0.462,1.884-0.597C365.026,393.384,365.255,393.326,365.26,393.344z"/>
				</g>
				<g>
					<path style="fill:#263238;" d="M390.756,415.066c0.017,0.005-0.056,0.241-0.212,0.687c-0.085,0.238-0.183,0.512-0.295,0.825
						c-0.139,0.316-0.341,0.663-0.547,1.063c-0.855,1.586-2.532,3.632-4.967,5.726c-2.418,2.111-5.571,4.279-8.676,7.111
						c-1.535,1.423-3.023,3.081-4.082,5.08c-1.079,1.993-1.573,4.332-2.006,6.717c-0.418,2.392-0.832,4.781-1.628,6.965
						c-0.761,2.192-1.737,4.216-2.829,6.043c-1.093,1.827-2.294,3.461-3.519,4.902c-1.25,1.419-2.485,2.678-3.702,3.728
						c-2.411,2.128-4.616,3.53-6.17,4.416c-0.766,0.466-1.4,0.757-1.818,0.974c-0.422,0.21-0.647,0.313-0.655,0.297
						c-0.008-0.016,0.201-0.15,0.606-0.389c0.401-0.247,1.017-0.565,1.763-1.056c1.515-0.935,3.673-2.374,6.029-4.517
						c1.19-1.057,2.396-2.318,3.617-3.732c1.196-1.436,2.368-3.058,3.435-4.866c1.065-1.808,2.017-3.806,2.759-5.965
						c0.777-2.154,1.176-4.482,1.598-6.891c0.436-2.395,0.94-4.793,2.068-6.863c1.106-2.073,2.643-3.761,4.207-5.194
						c3.165-2.85,6.332-4.979,8.763-7.039c2.445-2.042,4.133-4.015,5.03-5.547c0.217-0.386,0.43-0.721,0.582-1.027
						c0.128-0.303,0.24-0.567,0.338-0.797C390.632,415.286,390.739,415.061,390.756,415.066z"/>
				</g>
			</g>
			<g>
				<path style="fill:#FF725E;" d="M328.612,376.986l-24.382,24.709c1.913,10.665,3.826,21.329,5.739,31.994
					c0.427,2.38,1.113,5.079,3.674,6.218c3.123,1.388,7.135-0.462,9.358-2.829c3.95-4.204,4.741-9.752,5.108-14.983
					C329.223,406.186,332.573,392.468,328.612,376.986z"/>
				<path style="fill:#FF725E;" d="M284.419,371.141l-18.685,19.058c1.931,11.278,3.537,31.873,5.468,43.151
					c0.431,2.517,1.117,5.373,3.629,6.59c3.063,1.484,6.978-0.449,9.14-2.937c3.841-4.42,4.584-10.277,4.914-15.802
					C289.886,404.399,288.38,387.521,284.419,371.141z"/>
				<g>
					<g style="opacity:0.3;">
						<path d="M288.738,398.478l-24.292,0.742c3.956,5.228,10.392,8.171,16.89,9.048c6.497,0.877,13.104-0.114,19.505-1.531
							c5.188-1.148,11.14-3.985,15.913-6.322c4.773-2.337,17.884-14.372,18.701-21.984
							C322.297,380.635,301.896,396.273,288.738,398.478z"/>
					</g>
					<g>
						<path style="fill:#FF725E;" d="M276.403,329.95c0,0-24.835,3.694-30.317,26.174l-1.403,14.558c0,0-1.251,14.472,7.118,24.494
							c7.239,8.669,14.579,11.994,36.619,10.297c14.956-1.152,29.01-6.576,37.671-15.837c3.528-3.772,7.714-8.421,10.226-12.447
							c7.785-12.474-0.69-28.732-4.773-33.732C325.958,336.617,307.678,323.35,276.403,329.95z"/>
						<g>
							<g>
								<g>
									<g>
										<g>
											<g>
												<g>
													<path style="fill:#FF725E;" d="M270.936,333.609c0,0-13.641-5.213-16.369-6.333
														c-7.387-3.031-16.567-5.624-18.562,0.797c-1.567,5.042,12.708,30.549,12.708,30.549l14.273-16.073L270.936,333.609z"/>
												</g>
											</g>
										</g>
									</g>
								</g>
							</g>
							<g style="opacity:0.3;">
								<g>
									<g>
										<g>
											<g>
												<g>
													<path d="M267.456,336.292c0,0-26.953-11.553-28.641-9.266c-1.688,2.288,10.615,23.437,10.615,23.437
														S265.749,344.913,267.456,336.292z"/>
												</g>
											</g>
										</g>
									</g>
								</g>
							</g>
							<g>
								<g>
									<g>
										<g>
											<g>
												<g>
													<path style="fill:#FF725E;" d="M247.145,351.52c0.803-4.252,3.734-8.863,6.427-12.169
														c-0.348,1.676-0.15,3.478,0.555,5.057c4.827-5.158,9.954-10.508,16.675-12.575l-1.028,5.013l-10.307,15.889
														L247.145,351.52z"/>
												</g>
											</g>
										</g>
									</g>
								</g>
							</g>
						</g>
						<path style="opacity:0.3;fill:#FFFFFF;" d="M291.189,362.344c-0.011-0.005-0.022-0.011-0.033-0.017
							c-1.774-0.892-3.81-1.117-5.773-0.817l-6.626,1.014c-1.258,0.193-2.481,0.598-3.567,1.262
							c-1.016,0.621-2.183,1.556-3.116,2.915c-3.476,5.15-3.525,12.54-0.093,17.798c3.431,5.259,10.133,8.032,16.085,6.629
							c5.953-1.403,10.746-6.905,11.434-13.161C300.188,371.711,296.704,365.14,291.189,362.344z"/>
						<g>
							<g>
								<g>
									<g>
										<g>
											<g>
												<path style="fill:#263238;" d="M286.958,364.253c-3.513-0.793-5.83-0.524-9.136,1.191
													c-0.908,0.37-1.592,1.917-0.823,2.567l4.599,3.879c0.444,0.374,1.085,0.356,1.5-0.042l5.618-5.397
													C289.531,365.668,288.339,364.44,286.958,364.253z"/>
											</g>
										</g>
									</g>
								</g>
							</g>
						</g>
						<g>
							<g>
								<g>
									<g>
										<g>
											<g>
												<g>
													<g>
														<path style="fill:#263238;" d="M282.31,369.748c-0.022-0.001-0.064,0.307-0.046,0.869
															c0.018,0.56,0.107,1.376,0.389,2.348c0.289,0.964,0.783,2.088,1.614,3.138c0.821,1.055,2.013,1.987,3.433,2.539
															c1.421,0.546,2.925,0.641,4.198,0.311c1.278-0.321,2.296-0.994,3.006-1.685c0.708-0.703,1.123-1.416,1.338-1.931
															c0.217-0.517,0.261-0.828,0.244-0.833c-0.081-0.05-0.353,1.237-1.774,2.548c-0.704,0.635-1.69,1.248-2.901,1.531
															c-1.204,0.291-2.622,0.191-3.973-0.327c-1.35-0.526-2.488-1.401-3.287-2.394c-0.811-0.991-1.314-2.061-1.628-2.986
															C282.311,371.003,282.393,369.74,282.31,369.748z"/>
													</g>
												</g>
											</g>
										</g>
									</g>
								</g>
							</g>
							<g>
								<g>
									<g>
										<g>
											<g>
												<g>
													<g>
														<path style="fill:#263238;" d="M270.958,376.534c-0.02,0.019,0.148,0.25,0.479,0.647
															c0.335,0.392,0.822,0.962,1.528,1.567c0.7,0.59,1.657,1.259,2.896,1.451c1.231,0.201,2.637-0.18,3.773-1.034
															c1.148-0.845,1.945-2.032,2.362-3.199c0.435-1.168,0.572-2.294,0.612-3.225c0.039-0.936-0.024-1.69-0.082-2.207
															c-0.06-0.517-0.124-0.799-0.149-0.797c-0.075,0.004,0.078,1.153-0.051,2.983c-0.074,0.91-0.238,1.995-0.673,3.104
															c-0.419,1.111-1.174,2.207-2.254,3.006c-1.069,0.802-2.36,1.158-3.49,0.994c-1.142-0.154-2.066-0.755-2.77-1.302
															C271.746,377.371,271.014,376.474,270.958,376.534z"/>
													</g>
												</g>
											</g>
										</g>
									</g>
								</g>
							</g>
						</g>
						<g>
							<g>
								<g>
									<g>
										<g>
											<g>
												<g>
													<path style="fill:#263238;" d="M279.204,383.394c-0.039,0.037,0.347,0.559,1.209,1.117
														c0.847,0.556,2.22,1.092,3.783,1.032c1.564-0.062,2.88-0.704,3.672-1.324c0.806-0.622,1.141-1.173,1.099-1.207
														c-0.058-0.056-0.479,0.397-1.292,0.914c-0.804,0.518-2.051,1.061-3.502,1.119c-1.45,0.055-2.744-0.388-3.594-0.841
														C279.719,383.752,279.256,383.333,279.204,383.394z"/>
												</g>
											</g>
										</g>
									</g>
								</g>
							</g>
						</g>
						<g>
							<g>
								<g>
									<g>
										<g>
											<g>
												<g>
													<path style="fill:#263238;" d="M294.44,369.911c0.005,0.137,16.886-0.233,37.698-0.829
														c20.82-0.595,37.688-1.19,37.683-1.328c-0.005-0.138-16.881,0.233-37.701,0.829
														C311.307,369.179,294.435,369.773,294.44,369.911z"/>
												</g>
											</g>
										</g>
									</g>
								</g>
							</g>
						</g>
						<g>
							<g>
								<g>
									<g>
										<g>
											<g>
												<g>
													<path style="fill:#263238;" d="M294.498,372.419c-0.001,0.018,0.216,0.053,0.63,0.105
														c0.464,0.053,1.066,0.12,1.815,0.204c1.576,0.17,3.861,0.381,6.686,0.613c5.65,0.465,13.466,0.969,22.106,1.26
														c8.643,0.288,16.469,0.311,22.131,0.225c2.831-0.042,5.121-0.1,6.702-0.163c0.751-0.034,1.355-0.061,1.821-0.082
														c0.416-0.024,0.635-0.045,0.634-0.062c-0.001-0.017-0.22-0.03-0.637-0.038c-0.466-0.003-1.071-0.007-1.823-0.011
														c-1.64,0.001-3.916,0.002-6.703,0.004c-5.659-0.005-13.479-0.083-22.115-0.371c-8.632-0.292-16.443-0.739-22.095-1.114
														c-2.783-0.189-5.055-0.342-6.694-0.454c-0.751-0.046-1.355-0.083-1.821-0.111
														C294.719,372.405,294.499,372.403,294.498,372.419z"/>
												</g>
											</g>
										</g>
									</g>
								</g>
							</g>
						</g>
						<g>
							<g>
								<g>
									<g>
										<g>
											<g>
												<g>
													<path style="fill:#263238;" d="M220.431,383.433c0.027,0.135,12.127-2.201,27.023-5.218
														c14.901-3.018,26.955-5.574,26.927-5.71c-0.027-0.135-12.125,2.201-27.026,5.219
														C232.46,380.742,220.404,383.298,220.431,383.433z"/>
												</g>
											</g>
										</g>
									</g>
								</g>
							</g>
						</g>
						<g>
							<g>
								<g>
									<g>
										<g>
											<g>
												<g>
													<path style="fill:#263238;" d="M231.815,389.907c0.048,0.13,9.185-3.237,20.408-7.518
														c11.226-4.283,20.284-7.858,20.236-7.988c-0.047-0.129-9.183,3.236-20.409,7.519
														C240.828,386.202,231.767,389.778,231.815,389.907z"/>
												</g>
											</g>
										</g>
									</g>
								</g>
							</g>
						</g>
						<g>
							<g>
								<path style="fill:#FF725E;" d="M266.287,332.533c5.648-2.901,10.512-5.072,16.842-5.556
									c2.292-5.407,6.67-9.898,12.016-12.328c-1.843,3.61-3.687,7.22-5.53,10.829c2.463-2.583,5.585-4.532,8.988-5.608
									c-2.088,2.34-3.293,4.218-3.88,7.299c3.432-0.013,8.935,0.769,8.935,0.769s19.253-22.558,28.923-19.611
									c7.089,2.161,2.298,41.47,2.298,41.47"/>
								<g>
									<path style="fill:#263238;" d="M334.878,349.796c-0.009-0.001-0.001-0.136,0.02-0.399c0.026-0.288,0.061-0.674,0.105-1.166
										c0.094-1.053,0.228-2.558,0.399-4.482c0.313-3.893,0.766-9.534,0.86-16.514c0.022-3.486-0.003-7.322-0.533-11.378
										c-0.139-1.012-0.315-2.036-0.574-3.053c-0.26-1.013-0.591-2.039-1.143-2.937c-0.276-0.444-0.62-0.852-1.052-1.11
										c-0.414-0.255-0.983-0.325-1.508-0.412c-1.081-0.14-2.203,0.051-3.294,0.337c-2.197,0.591-4.283,1.739-6.31,3.015
										c-2.022,1.301-3.974,2.805-5.895,4.412c-3.827,3.236-7.528,6.901-11.089,10.85c-0.338,0.383-0.675,0.766-1.01,1.146
										l-0.094,0.107l-0.14-0.018c-3.001-0.395-5.986-0.742-8.897-0.768l-0.312-0.003l0.058-0.304
										c0.269-1.419,0.729-2.811,1.437-4.053c0.701-1.247,1.595-2.339,2.509-3.365l0.265,0.409
										c-3.478,1.099-6.541,3.077-8.89,5.533l-1.142,1.194l0.754-1.47c1.955-3.812,3.808-7.424,5.549-10.819l0.285,0.299
										c-3.026,1.379-5.561,3.321-7.545,5.457c-1.99,2.14-3.43,4.475-4.409,6.736l-0.04,0.093l-0.099,0.007
										c-5.617,0.412-9.811,2.187-12.588,3.402c-1.395,0.623-2.452,1.142-3.169,1.483c-0.341,0.163-0.61,0.291-0.814,0.389
										c-0.184,0.085-0.28,0.125-0.283,0.118c-0.004-0.007,0.085-0.061,0.262-0.159c0.199-0.108,0.461-0.25,0.794-0.43
										c0.705-0.368,1.75-0.913,3.137-1.563c2.759-1.268,6.964-3.107,12.637-3.569l-0.14,0.1c0.974-2.302,2.419-4.684,4.428-6.871
										c2.003-2.183,4.571-4.173,7.65-5.592l0.571-0.263l-0.286,0.562c-1.729,3.401-3.569,7.02-5.511,10.839l-0.388-0.275
										c2.397-2.52,5.525-4.551,9.086-5.683l0.874-0.278l-0.61,0.687c-0.902,1.016-1.77,2.083-2.439,3.279
										c-0.677,1.192-1.115,2.52-1.376,3.9l-0.254-0.306c2.968,0.025,5.947,0.372,8.972,0.769l-0.234,0.089
										c0.337-0.383,0.677-0.769,1.018-1.155c3.578-3.967,7.293-7.642,11.149-10.893c1.936-1.615,3.906-3.128,5.955-4.44
										c2.057-1.288,4.175-2.452,6.453-3.06c1.132-0.293,2.307-0.492,3.471-0.34c0.291,0.011,0.572,0.11,0.857,0.161
										c0.274,0.053,0.588,0.151,0.838,0.32c0.523,0.318,0.902,0.784,1.201,1.265c0.593,0.974,0.923,2.032,1.186,3.07
										c0.262,1.042,0.435,2.081,0.571,3.105c0.516,4.1,0.518,7.945,0.473,11.441c-0.142,6.997-0.651,12.637-1.027,16.528
										c-0.194,1.945-0.368,3.453-0.497,4.475c-0.066,0.49-0.118,0.874-0.156,1.16
										C334.912,349.664,334.887,349.797,334.878,349.796z"/>
								</g>
							</g>
							<g style="opacity:0.3;">
								<g>
									<g>
										<g>
											<g>
												<g>
													<path d="M328.345,343.987c0,0,2.27-28.895-1.065-29.608c-3.335-0.714-22.701,18.251-22.701,18.251
														S317.691,345.56,328.345,343.987z"/>
												</g>
											</g>
										</g>
									</g>
								</g>
							</g>
							<g>
								<g>
									<g>
										<g>
											<g>
												<g>
													<path style="fill:#FF725E;" d="M304.377,331.485c4.184-0.707,9.462,0.497,13.46,1.923
														c-1.661,0.249-3.24,1.062-4.433,2.283c6.461,2.825,13.208,5.869,17.521,11.575l-4.962,0.756L307.7,343.68
														L304.377,331.485z"/>
												</g>
											</g>
										</g>
									</g>
								</g>
							</g>
						</g>
						<g>
							<path style="fill:#263238;" d="M272.455,367.784c-0.365,0.109-0.94-1.122-1.849-2.878c-0.467-0.867-1.053-1.836-1.886-2.644
								c-0.831-0.814-1.922-1.453-3.064-1.512c-1.157-0.064-2.352,0.436-3.286,1.116c-0.93,0.673-1.651,1.563-2.222,2.349
								c-1.123,1.61-1.799,2.776-2.154,2.636c-0.311-0.118-0.285-1.456,0.543-3.525c0.438-1.02,1.113-2.24,2.318-3.319
								c1.175-1.038,2.892-1.951,4.943-1.856c2.07,0.121,3.689,1.294,4.689,2.487c1.033,1.228,1.541,2.537,1.834,3.594
								C272.865,366.376,272.775,367.69,272.455,367.784z"/>
						</g>
						<g>
							<path style="fill:#263238;" d="M309.28,361.322c-0.294,0.243-1.304-0.664-2.828-1.925c-0.769-0.615-1.688-1.277-2.77-1.695
								c-1.083-0.424-2.337-0.585-3.412-0.192c-1.09,0.394-1.994,1.322-2.588,2.313c-0.593,0.984-0.908,2.085-1.126,3.031
								c-0.403,1.921-0.57,3.259-0.951,3.268c-0.332,0.013-0.832-1.228-0.88-3.456c0.004-1.11,0.147-2.497,0.834-3.961
								c0.675-1.415,1.898-2.927,3.822-3.643c1.952-0.698,3.902-0.253,5.289,0.453c1.431,0.726,2.411,1.732,3.095,2.59
								C309.107,359.865,309.539,361.11,309.28,361.322z"/>
						</g>
					</g>
					<g style="opacity:0.3;">
						<path style="fill:#FFFFFF;" d="M287.336,351.628c0.308,1.398-1.891,3.071-4.961,3.384c-3.071,0.32-5.565-0.869-5.548-2.301
							c0.014-1.444,2.267-2.591,5.014-2.879C284.588,349.555,287.028,350.218,287.336,351.628z"/>
					</g>
				</g>
				<g>
					<path style="fill:#263238;" d="M343.372,365.705c0.016,0.009-0.104,0.256-0.348,0.719c-0.241,0.464-0.612,1.14-1.095,2.007
						c-0.972,1.731-2.414,4.218-4.347,7.2c-1.935,2.978-4.375,6.451-7.442,10.021c-3.069,3.56-6.785,7.219-11.213,10.386
						c-4.416,3.178-9.132,5.497-13.638,6.884c-4.502,1.414-8.708,2.078-12.232,2.505c-3.53,0.421-6.399,0.596-8.38,0.714
						c-0.953,0.045-1.712,0.082-2.283,0.109c-0.522,0.018-0.797,0.019-0.798,0.001c-0.001-0.018,0.271-0.054,0.791-0.105
						c0.569-0.051,1.326-0.12,2.275-0.206c1.975-0.18,4.837-0.41,8.348-0.877c3.506-0.471,7.681-1.171,12.132-2.597
						c4.454-1.399,9.104-3.702,13.48-6.85c4.386-3.137,8.083-6.756,11.153-10.277c3.069-3.531,5.529-6.966,7.497-9.91
						c1.966-2.947,3.454-5.402,4.479-7.1c0.492-0.817,0.884-1.468,1.179-1.957C343.206,365.926,343.357,365.696,343.372,365.705z"/>
				</g>
				<g style="opacity:0.3;">
					<path d="M281.81,427.608c-0.611-0.151-1.303-0.023-1.84,0.283l0.009-0.012c-2.065,1.009-3.507,3.467-3.907,5.491
						c-0.239,1.207-0.007,2.605,1.11,3.315c1.158,0.736,2.897,0.436,4.019-0.39c1.122-0.826,1.743-2.052,2.202-3.263
						c0.38-1.005,0.678-2.067,0.496-3.101C283.717,428.895,282.96,427.892,281.81,427.608z"/>
				</g>
				<g>
					<path style="fill:#263238;" d="M276.239,426.615c-0.108-0.076,1.627-1.839,4.467-2.669c2.824-0.869,5.238-0.42,5.198-0.299
						c-0.006,0.163-2.345-0.039-5.047,0.797C278.138,425.235,276.335,426.743,276.239,426.615z"/>
				</g>
			</g>
			<g>
				<path style="fill:#263238;" d="M330.583,389.866c0.036,0.001,0.06,0.346,0.074,0.971c0.015,0.625,0.012,1.528-0.009,2.644
					c-0.042,2.232-0.176,5.315-0.442,8.711c-0.268,3.398-0.618,6.464-0.926,8.675c-0.154,1.106-0.292,1.998-0.404,2.613
					c-0.111,0.615-0.189,0.952-0.225,0.948c-0.074-0.01,0.05-1.385,0.263-3.603c0.214-2.219,0.505-5.283,0.772-8.673
					c0.266-3.389,0.457-6.461,0.593-8.686C330.416,391.242,330.508,389.865,330.583,389.866z"/>
			</g>
		</g>
	</g>
</g>
<g id="Dog">
	<g>
		<g>
			<g>
				<path style="fill:#263238;" d="M145.918,321.1c-0.009,0.001-0.037-0.113-0.085-0.337c-0.05-0.251-0.115-0.581-0.197-0.997
					c-0.168-0.91-0.405-2.199-0.708-3.842c-0.64-3.365-1.555-8.179-2.683-14.115c-2.308-11.911-5.659-28.333-9.341-46.476
					c-3.684-18.149-6.978-34.587-9.194-46.518c-1.115-5.964-1.964-10.801-2.521-14.148c-0.261-1.651-0.466-2.945-0.611-3.859
					c-0.061-0.42-0.109-0.752-0.146-1.006c-0.03-0.227-0.041-0.344-0.032-0.345c0.009-0.002,0.037,0.113,0.085,0.337
					c0.05,0.251,0.115,0.581,0.197,0.997c0.168,0.91,0.405,2.198,0.708,3.842c0.639,3.365,1.554,8.178,2.683,14.114
					c2.308,11.911,5.659,28.335,9.343,46.484c3.683,18.143,6.977,34.579,9.193,46.51c1.115,5.964,1.964,10.801,2.521,14.149
					c0.262,1.651,0.467,2.945,0.611,3.86c0.061,0.42,0.109,0.752,0.146,1.006C145.916,320.981,145.927,321.098,145.918,321.1z"/>
			</g>
			<g>
				<g>
					<g>
						<g>
							<g>
								<g>
									<g>
										<g>
											<g>
												<g>
													<path style="fill:#455A64;" d="M118.739,196.401c-23.462-9.043-44.815-30.385-59.953-50.463
														C43.649,125.86,36.052,99.385,41.792,74.904C47.531,50.423,67.897,29.1,92.779,25.472
														c26.646-3.885,53.611,13.026,66.301,36.776c12.689,23.751,8.513,57.551-3.491,81.656
														C142.033,171.128,138.445,179.996,118.739,196.401"/>
												</g>
											</g>
										</g>
									</g>
								</g>
							</g>
						</g>
						<g>
							<g>
								<g>
									<g>
										<g>
											<g>
												<g>
													<path style="fill:#455A64;" d="M128.84,199.856c-3.585-2.753-6.78-6.196-8.44-10.4l-2.034,2.797
														c-2.398,2.885-3.775,10.219-4.038,13.961c-0.076,1.081,0.102,2.416,1.105,2.825c1.068,0.435,2.195-0.558,2.7-1.595
														c0.506-1.037,0.777-2.264,1.678-2.985c0.127,1.197,0.269,2.439,0.897,3.466c0.628,1.027,1.891,1.772,3.04,1.41
														c1.168-0.368,1.772-1.743,1.667-2.964c-0.105-1.22-0.746-2.321-1.372-3.374c1.071,1.063,2.219,2.171,3.686,2.524
														c1.468,0.353,3.311-0.398,3.57-1.885C131.57,202.074,130.098,200.821,128.84,199.856z"/>
												</g>
											</g>
										</g>
									</g>
								</g>
							</g>
						</g>
						<g>
							<g>
								<g>
									<g>
										<g>
											<g>
												<g>
													<g>
														<path style="fill:#263238;" d="M123.143,192.589c0.336,0.176-0.638,2.063-2.96,2.841
															c-2.316,0.796-4.237-0.109-4.078-0.452c0.107-0.385,1.778-0.215,3.629-0.871
															C121.601,193.502,122.824,192.348,123.143,192.589z"/>
													</g>
												</g>
											</g>
										</g>
									</g>
								</g>
							</g>
						</g>
					</g>
				</g>
				<g style="opacity:0.2;">
					<g>
						<g>
							<g>
								<g>
									<g>
										<path d="M159.006,99.269c-1.557-0.763-3.432-0.349-4.707,0.826c-2.407,2.217-2.603,5.421-2.892,8.438
											c-2.313,24.203-14.498,47.317-33.16,62.901c-2.712,2.264-5.877,5.255-4.981,8.672c0.665,2.535,3.495,4.005,6.116,3.983
											c1.748-0.015,4.012-0.474,6.535-1.88c2.061-1.148,3.85-2.736,5.314-4.585c17.345-21.905,25.558-42.9,29.895-70.845
											C161.556,104.015,161.601,100.54,159.006,99.269z"/>
									</g>
								</g>
							</g>
						</g>
					</g>
				</g>
				<g style="opacity:0.2;">
					<g>
						<g>
							<g>
								<g>
									<g>
										<path d="M155.553,74.567c-2.678-1.227-6.011,0.352-6.27,3.683l-0.013-0.166c-0.03,2.569,0.225,5.565,1.435,7.831
											c1.21,2.267,4.064,3.876,6.403,2.814c2.409-1.094,3.025-4.261,2.736-6.891C159.524,78.91,158.231,75.794,155.553,74.567z"
											/>
									</g>
								</g>
							</g>
						</g>
					</g>
				</g>
				<g>
					<g>
						<g>
							<g>
								<g>
									<g>
										<path style="fill:#FFFFFF;" d="M68.325,39.92c0.014,0.019-0.155,0.186-0.489,0.485c-0.398,0.344-0.888,0.767-1.482,1.281
											c-0.332,0.28-0.691,0.584-1.08,0.912c-0.385,0.345-0.777,0.747-1.214,1.162c-0.857,0.848-1.892,1.752-2.879,2.908
											c-0.511,0.563-1.045,1.151-1.6,1.762c-0.552,0.616-1.058,1.315-1.62,2.006c-1.15,1.363-2.194,2.958-3.336,4.603
											c-2.158,3.372-4.261,7.256-5.993,11.544c-1.68,4.31-2.811,8.58-3.552,12.516c-0.296,1.98-0.63,3.857-0.727,5.639
											c-0.065,0.888-0.175,1.744-0.196,2.571c-0.015,0.825-0.029,1.619-0.043,2.379c-0.074,1.517,0.06,2.886,0.103,4.09
											c0.033,0.602,0.043,1.164,0.087,1.678c0.058,0.505,0.111,0.973,0.161,1.404c0.08,0.781,0.147,1.424,0.2,1.948
											c0.038,0.447,0.047,0.685,0.024,0.689c-0.023,0.004-0.078-0.225-0.161-0.666c-0.089-0.521-0.197-1.16-0.329-1.937
											c-0.068-0.431-0.142-0.899-0.222-1.404c-0.064-0.516-0.093-1.079-0.145-1.684c-0.08-1.21-0.248-2.587-0.206-4.117
											c0-0.767-0.001-1.568-0.001-2.4c0.007-0.835,0.105-1.699,0.158-2.597c0.074-1.8,0.388-3.698,0.671-5.702
											c0.713-3.981,1.839-8.304,3.537-12.661c1.75-4.335,3.894-8.252,6.103-11.639c1.168-1.652,2.24-3.25,3.42-4.611
											c0.577-0.69,1.098-1.386,1.665-1.998c0.571-0.606,1.12-1.188,1.646-1.746c1.018-1.143,2.084-2.03,2.972-2.857
											c0.452-0.404,0.86-0.795,1.26-1.127c0.404-0.313,0.779-0.603,1.124-0.87c0.629-0.475,1.147-0.866,1.568-1.185
											C68.114,40.03,68.311,39.901,68.325,39.92z"/>
									</g>
								</g>
							</g>
						</g>
					</g>
				</g>
				<g>
					<g>
						<g>
							<g>
								<g>
									<g>
										<path style="fill:#FFFFFF;" d="M88.322,32.022c0.06,0.181-2.409,1.162-5.514,2.191c-3.106,1.03-5.671,1.717-5.732,1.537
											c-0.06-0.181,2.409-1.162,5.515-2.191C85.696,32.529,88.263,31.841,88.322,32.022z"/>
									</g>
								</g>
							</g>
						</g>
					</g>
				</g>
				<g style="opacity:0.1;">
					<g>
						<g>
							<g>
								<g>
									<g>
										<g>
											<g>
												<path style="fill:#FFFFFF;" d="M73.492,42.736c-23.705,17.415-29.297,44.636-19.278,72.292
													c3.195,8.821,8.492,17.298,17.502,21.126c2.371,1.008,4.942,1.569,7.519,1.586
													c13.104,0.084,18.782-11.582,19.238-22.293c0.338-7.928-1.602-15.762-2.25-23.672c-0.648-7.909,0.226-16.49,5.31-22.583
													c5.051-6.053,13.961-9.367,13.929-18.381c-0.015-4.334-2.427-8.298-5.909-10.879c-2.807-2.08-5.874-3.288-9.073-3.955
													c-8.304-1.731-16.955,0.326-24.096,4.904L73.492,42.736z"/>
											</g>
										</g>
									</g>
								</g>
							</g>
						</g>
					</g>
				</g>
			</g>
		</g>
		<g>
			<g>
				<path style="fill:#263238;" d="M152.244,166.953c0.144,0.006-1.215,33.541-3.035,74.892c-1.82,41.366-3.412,74.883-3.556,74.877
					c-0.144-0.006,1.215-33.534,3.035-74.899C150.508,200.471,152.1,166.947,152.244,166.953z"/>
			</g>
			<g>
				<g>
					<g>
						<g>
							<g>
								<g>
									<g>
										<g>
											<g>
												<g>
													<path style="fill:#FF725E;" d="M149.095,214.55c-18.294-12.405-32.337-34.923-41.31-55.122
														c-8.973-20.2-10.217-44.38-0.439-64.202c9.779-19.822,31.454-34.035,53.481-32.197
														c23.589,1.968,43.318,21.805,49.466,44.664c6.147,22.859-4.145,50.972-19.213,69.227
														C174.063,197.537,169.229,204.417,149.095,214.55"/>
												</g>
											</g>
										</g>
									</g>
								</g>
							</g>
						</g>
						<g>
							<g>
								<g>
									<g>
										<g>
											<g>
												<g>
													<path style="fill:#FF725E;" d="M157.059,219.515c-2.523-3.069-4.575-6.653-5.161-10.582l-2.297,1.991
														c-2.626,1.994-5.263,8.001-6.231,11.152c-0.28,0.91-0.393,2.089,0.385,2.639c0.828,0.585,1.99-0.042,2.629-0.829
														c0.639-0.787,1.115-1.784,2.03-2.222c-0.129,1.05-0.254,2.142,0.08,3.146c0.334,1.005,1.267,1.893,2.322,1.811
														c1.074-0.083,1.863-1.141,2.016-2.207c0.153-1.066-0.178-2.136-0.504-3.162c0.706,1.123,1.469,2.3,2.655,2.894
														c1.186,0.594,2.914,0.317,3.431-0.905C158.956,221.956,157.944,220.592,157.059,219.515z"/>
												</g>
											</g>
										</g>
									</g>
								</g>
							</g>
						</g>
						<g>
							<g>
								<g>
									<g>
										<g>
											<g>
												<g>
													<g>
														<path style="fill:#263238;" d="M153.624,212.161c0.252,0.218-0.957,1.64-3.099,1.845
															c-2.142,0.221-3.607-0.935-3.402-1.198c0.168-0.309,1.565,0.17,3.281-0.025
															C152.122,212.636,153.398,211.891,153.624,212.161z"/>
													</g>
												</g>
											</g>
										</g>
									</g>
								</g>
							</g>
						</g>
					</g>
				</g>
				<g style="opacity:0.2;">
					<g>
						<g>
							<g>
								<g>
									<g>
										<path d="M202.874,139.378c-1.182-0.962-2.869-0.981-4.195-0.228c-2.502,1.42-3.306,4.125-4.153,6.651
											c-6.789,20.265-21.815,37.636-40.892,47.273c-2.772,1.4-6.077,3.332-5.988,6.436c0.066,2.303,2.197,4.124,4.446,4.626
											c1.499,0.335,3.529,0.391,5.97-0.312c1.993-0.574,3.84-1.578,5.461-2.87c19.205-15.31,30.409-31.656,39.675-54.724
											C204.115,143.948,204.844,140.982,202.874,139.378z"/>
									</g>
								</g>
							</g>
						</g>
					</g>
				</g>
				<g style="opacity:0.2;">
					<g>
						<g>
							<g>
								<g>
									<g>
										<path d="M204.825,117.539c-2.049-1.582-5.217-0.892-6.101,1.908l0.022-0.145c-0.536,2.194-0.913,4.81-0.327,6.991
											c0.586,2.181,2.71,4.127,4.924,3.682c2.28-0.458,3.437-3.047,3.712-5.357
											C207.362,122.047,206.875,119.122,204.825,117.539z"/>
									</g>
								</g>
							</g>
						</g>
					</g>
				</g>
				<g>
					<g>
						<g>
							<g>
								<g>
									<g>
										<path style="fill:#FFFFFF;" d="M137.017,70.541c0.008,0.019-0.169,0.128-0.515,0.318
											c-0.409,0.216-0.913,0.481-1.523,0.803c-0.34,0.174-0.708,0.362-1.105,0.566c-0.398,0.218-0.814,0.485-1.271,0.754
											c-0.902,0.556-1.968,1.125-3.043,1.918c-0.55,0.381-1.123,0.778-1.72,1.19c-0.595,0.418-1.167,0.916-1.786,1.396
											c-1.256,0.939-2.466,2.097-3.771,3.279c-2.518,2.459-5.09,5.366-7.425,8.694c-2.295,3.357-4.112,6.789-5.528,10.011
											c-0.647,1.637-1.306,3.178-1.743,4.684c-0.232,0.748-0.497,1.459-0.679,2.162c-0.177,0.703-0.346,1.38-0.509,2.029
											c-0.365,1.285-0.522,2.483-0.725,3.523c-0.091,0.522-0.194,1.005-0.259,1.454c-0.051,0.444-0.098,0.855-0.141,1.234
											c-0.086,0.685-0.157,1.249-0.216,1.708c-0.056,0.391-0.096,0.596-0.117,0.594c-0.021-0.001-0.022-0.208-0.005-0.602
											c0.028-0.463,0.062-1.033,0.103-1.724c0.028-0.383,0.057-0.798,0.089-1.246c0.048-0.454,0.135-0.943,0.211-1.471
											c0.172-1.052,0.301-2.265,0.642-3.566c0.152-0.657,0.311-1.343,0.476-2.056c0.171-0.713,0.427-1.434,0.651-2.192
											c0.421-1.527,1.067-3.09,1.707-4.749c1.402-3.267,3.224-6.745,5.544-10.139c2.36-3.364,4.974-6.293,7.539-8.754
											c1.328-1.183,2.563-2.338,3.845-3.269c0.631-0.476,1.215-0.969,1.823-1.38c0.609-0.405,1.195-0.795,1.757-1.168
											c1.098-0.776,2.188-1.324,3.112-1.856c0.468-0.257,0.895-0.51,1.303-0.715c0.408-0.188,0.787-0.362,1.135-0.522
											c0.633-0.282,1.154-0.514,1.578-0.703C136.814,70.593,137.009,70.522,137.017,70.541z"/>
									</g>
								</g>
							</g>
						</g>
					</g>
				</g>
				<g>
					<g>
						<g>
							<g>
								<g>
									<g>
										<path style="fill:#FFFFFF;" d="M155.709,67.751c0.015,0.167-2.294,0.516-5.157,0.781
											c-2.864,0.265-5.198,0.344-5.213,0.177c-0.015-0.167,2.293-0.516,5.157-0.781
											C153.36,67.664,155.694,67.585,155.709,67.751z"/>
									</g>
								</g>
							</g>
						</g>
					</g>
				</g>
				<g style="opacity:0.1;">
					<g>
						<g>
							<g>
								<g>
									<g>
										<g>
											<g>
												<path style="fill:#FFFFFF;" d="M140.881,73.979c-23.758,10.202-33.955,32.4-30.871,58.072
													c0.984,8.188,3.835,16.499,10.79,21.567c1.83,1.334,3.92,2.326,6.123,2.852c11.204,2.676,18.384-6.186,20.902-15.267
													c1.864-6.722,1.76-13.815,2.777-20.716c1.016-6.901,3.47-14.076,9.034-18.282c5.528-4.179,13.816-5.247,15.579-12.972
													c0.848-3.714-0.43-7.588-2.898-10.489c-1.99-2.339-4.376-3.982-6.983-5.189c-6.767-3.132-14.583-3.09-21.607-0.588
													L140.881,73.979z"/>
											</g>
										</g>
									</g>
								</g>
							</g>
						</g>
					</g>
				</g>
			</g>
		</g>
		<g>
			<g>
				<g>
					<g>
						<g>
							<path style="fill:#C17560;" d="M190.188,373.089l-19.517-5.317c-0.279,3.887-4.817,9.804-5.097,13.691
								c-0.197,2.738,2.843,9.217,2.843,9.217s-3.265,1.013-5.166,2.577c-3.99,3.284-3.964,9.994-0.568,13.889
								c3.396,3.895,8,4.147,12.969,2.105c4.251-1.747,7.896-2.696,10.177-6.685c1.271-2.222,0.304-11.518-0.8-17.549
								C184.02,379.501,190.062,374.984,190.188,373.089z"/>
						</g>
						<g style="opacity:0.3;">
							<g>
								<path d="M190.188,373.089l-19.517-5.317c-0.279,3.887-4.817,9.804-5.097,13.691c-0.197,2.738,2.843,9.217,2.843,9.217
									s-3.265,1.013-5.166,2.577c-3.99,3.284-3.964,9.994-0.568,13.889c3.396,3.895,8,4.147,12.969,2.105
									c4.251-1.747,7.896-2.696,10.177-6.685c1.271-2.222,0.304-11.518-0.8-17.549
									C184.02,379.501,190.062,374.984,190.188,373.089z"/>
							</g>
						</g>
					</g>
					<g>
						<path style="fill:#AE7461;" d="M199.874,307.342c0.719,8.881-3.605,18-10.937,23.063l8.502,11.195
							c4.739-4.208,7.746-10.311,8.195-16.633C206.084,318.645,203.97,312.178,199.874,307.342z"/>
						<path style="fill:#AE7461;" d="M199.641,347.685c-0.597-8.41-5.465-16.61-13.008-20.377c-4.965-2.48-10.739-2.977-16.25-2.319
							c-5.511,0.658-10.826,2.41-16.063,4.247l-47.761,16.568c-2.517,9.55-2.792,20.404,2.715,28.602
							c3.723,5.544,9.742,9.263,16.126,11.225c6.384,1.961,13.153,2.3,19.83,2.177c8.43-0.156,16.915-1.041,24.94-3.627
							c8.025-2.586,15.602-6.953,21.149-13.303C196.866,364.529,200.237,356.095,199.641,347.685z"/>
						<path style="fill:#AE7461;" d="M110.817,366.328c-4.563-0.549-13.092,2.915-16.71,5.748
							c-3.618,2.833-6.621,5.861-7.736,10.319c-1.303,5.212-0.389,9.731,3.955,12.529c4.344,2.798,10.988,1.855,13.662-2.567
							c1.273-2.106,1.611-4.739,3.188-6.628c1.76-2.107,4.644-2.816,7.326-3.406c3.806-0.838,7.612-1.675,11.417-2.513
							L110.817,366.328z"/>
						<path style="fill:#AE7461;" d="M149.375,375.735L129.186,377c0.99,3.769,2.654,9.419,3.643,13.188
							c0.698,2.655,1.615,9.223,1.615,9.223s-2.764,2.012-4.058,4.106c-2.717,4.396-0.527,10.739,3.944,13.329
							c4.471,2.591,8.91,1.344,12.955-2.193c3.46-3.025,6.604-5.099,7.475-9.612C155.632,400.53,150.485,379.875,149.375,375.735z"
							/>
						<path style="fill:#AE7461;" d="M204.946,386.792c0.356-2.535-3.988-10.81-7.249-16.002c-2.983-4.748,0.954-11.184,0.369-12.99
							l-20.098,2.298c-2.944,6.209-3.622,9.258-2.44,12.972c0.833,2.616,8.841,9.14,8.841,9.14s-2.657,2.152-3.842,4.309
							c-2.488,4.529,0.024,10.752,4.622,13.11c4.598,2.358,8.967,0.885,12.825-2.854
							C201.274,393.576,204.307,391.343,204.946,386.792z"/>
						<g>
							<g>
								<path style="fill:#263238;" d="M131.477,387.027c-0.005,0.04-0.561,0.024-1.561-0.086c-1-0.11-2.442-0.337-4.193-0.773
									c-3.463-0.857-8.33-2.712-12.308-6.651c-3.946-3.914-6.24-8.525-7.295-11.96c-0.541-1.724-0.831-3.158-0.967-4.156
									c-0.138-0.998-0.159-1.555-0.12-1.56c0.126-0.022,0.345,2.206,1.521,5.57c1.151,3.348,3.46,7.82,7.317,11.645
									c3.859,3.824,8.577,5.708,11.971,6.669C129.274,386.691,131.495,386.906,131.477,387.027z"/>
							</g>
						</g>
						<g>
							<g>
								<path style="fill:#263238;" d="M134.182,395.844c-0.173,0.046-1.535-4.465-3.043-10.075
									c-1.509-5.612-2.591-10.198-2.419-10.244c0.173-0.046,1.535,4.464,3.044,10.076
									C133.272,391.211,134.355,395.798,134.182,395.844z"/>
							</g>
						</g>
						<g>
							<g>
								<path style="fill:#263238;" d="M172.839,358.89c0.104,0.029-0.308,1.455-0.636,3.803c-0.319,2.326-0.505,5.683,0.657,9.081
									c1.175,3.387,3.618,5.801,5.662,6.896c2.064,1.138,3.604,1.152,3.578,1.287c-0.002,0.036-0.377,0.062-1.051-0.021
									c-0.674-0.077-1.641-0.326-2.74-0.861c-2.194-1.038-4.826-3.524-6.062-7.089c-1.214-3.557-0.937-7.023-0.498-9.365
									c0.222-1.185,0.481-2.125,0.69-2.763C172.65,359.22,172.798,358.878,172.839,358.89z"/>
							</g>
						</g>
						<g>
							<g>
								<path style="fill:#263238;" d="M148.628,369.875c-0.089,0.068-0.695-0.788-1.987-1.808
									c-1.272-1.018-3.332-2.142-5.812-2.412c-2.481-0.265-4.733,0.395-6.193,1.118c-1.48,0.721-2.254,1.428-2.327,1.343
									c-0.05-0.044,0.625-0.887,2.113-1.748c1.463-0.859,3.832-1.639,6.476-1.357c2.642,0.287,4.791,1.554,6.037,2.705
									C148.206,368.875,148.686,369.843,148.628,369.875z"/>
							</g>
						</g>
					</g>
				</g>
			</g>
			<path style="fill:#263238;" d="M152.592,329.835l6.816-2.314c0,0,8.009,18.79,6.466,36.167
				c-1.544,17.377-3.542,22.485-3.542,22.485l-4.844,0.779c0,0,3.525-19.063,2.789-30.58
				C159.423,343.001,152.592,329.835,152.592,329.835z"/>
			<g>
				<g>
					<path style="fill:#6F4439;" d="M139.493,344.242c0.149-3.656-2.38-6.938-5.366-9.053c-3.426-2.427-7.58-3.763-11.772-3.994
						c-2.951-0.162-6.069,0.264-8.455,2.006c-2.371,1.731-3.748,4.62-4.008,7.544c-0.26,2.924-2.39,5.274-1.104,7.913
						c5.138,3.605,11.485,5.455,17.756,5.173c2.952-0.133,5.955-0.754,8.441-2.35C137.471,349.884,139.373,347.195,139.493,344.242z
						"/>
					<path style="fill:#AE7461;" d="M159.383,332.798l0.678-6.747c0,0,0.498-3.159-2.982-21.573
						c-4.592-24.298-35.438-23.175-35.438-23.175l0,0c-2.892-0.23-30.221-0.829-34.85,24.85
						c-2.482,13.768-1.037,18.895-1.037,18.895l1.613,8.97c0,0,1.737,17.633,15.727,20.132c0,0,3.797,1.122,8.563-6.91
						c4.639-7.819,4.054-11.698,10.617-13.266c8.084,0.977,7.61,5.594,12.929,13.257c5.326,7.673,9.034,6.283,9.034,6.283
						C158.013,350.025,159.383,332.798,159.383,332.798z"/>
					<path style="fill:#263238;" d="M103.893,318.783c-2.221,1.548-5.277,1.002-6.825-1.219c-1.548-2.221-1.002-5.277,1.219-6.825
						c2.221-1.548,5.277-1.002,6.825,1.219C106.66,314.18,106.115,317.235,103.893,318.783z"/>
					<path style="fill:#263238;" d="M147.788,317.9c-2.221,1.548-5.277,1.002-6.825-1.219s-1.002-5.277,1.219-6.825
						c2.221-1.548,5.277-1.002,6.825,1.219C150.555,313.297,150.009,316.352,147.788,317.9z"/>
					<g style="opacity:0.2;">
						<path d="M158.9,335.788c-13.198-12.866-19.378-21.379-31.321-23.341l-0.658-0.092c-7.184-1.643-15.119,0.458-20.548,5.443
							c-3.785,3.475-5.507,8.853-9.943,11.446c-1.952,1.141-5.75,1.944-7.326,3.565c-0.777,0.799-1.256,1.685-1.526,2.626
							c0.755,4.228,3.939,16.649,15.515,18.716c0,0,3.797,1.122,8.563-6.91c4.639-7.819,4.054-11.698,10.617-13.266
							c8.084,0.977,7.61,5.594,12.929,13.257c5.326,7.673,9.034,6.283,9.034,6.283C154.408,350.938,157.813,340.879,158.9,335.788z"
							/>
					</g>
					<path style="fill:#263238;" d="M130.003,317.732c-0.297-0.728-1.009-1.353-1.848-1.819l0.026,0.009
						c-0.016-0.008-0.032-0.013-0.048-0.021c-0.509-0.281-1.06-0.503-1.6-0.649c-2.641-0.943-5.147-1.074-8.046-0.024
						c-1.248,0.452-2.479,1.135-3.196,2.252c-0.716,1.117-0.757,2.746,0.195,3.671c1.013,0.984,2.686,0.862,3.866,1.638
						c0.763,0.502,1.243,1.326,1.879,1.981c0.637,0.655,1.618,1.158,2.446,0.772c1.051-0.49,1.141-2.03,2.067-2.729
						c0.873-0.658,2.17-0.346,3.126-0.875C130.091,321.264,130.531,319.023,130.003,317.732z"/>
					<g>
						<path style="fill:#263238;" d="M139.676,317.435c-0.007,0.011-0.147-0.062-0.405-0.212c-0.294-0.171-0.668-0.388-1.128-0.655
							c-0.984-0.559-2.425-1.343-4.282-2.143c-1.86-0.782-4.142-1.586-6.77-2.05c-2.618-0.474-5.585-0.601-8.609-0.05
							c-3.023,0.538-5.78,1.68-7.976,3.172c-1.101,0.743-2.062,1.57-2.885,2.418c-0.815,0.857-1.498,1.728-2.094,2.544
							c-1.187,1.637-2.093,3.011-2.784,3.914c-0.342,0.454-0.618,0.798-0.813,1.026c-0.195,0.227-0.303,0.342-0.313,0.333
							c-0.01-0.008,0.077-0.14,0.252-0.381c0.196-0.277,0.445-0.63,0.752-1.065c0.651-0.927,1.518-2.318,2.684-3.986
							c0.586-0.831,1.264-1.723,2.083-2.605c0.828-0.874,1.801-1.726,2.917-2.492c2.228-1.538,5.034-2.711,8.109-3.258
							c3.076-0.561,6.095-0.419,8.742,0.08c2.658,0.49,4.954,1.33,6.815,2.15c1.857,0.838,3.286,1.663,4.249,2.264
							c0.484,0.299,0.849,0.546,1.093,0.719C139.558,317.328,139.683,317.424,139.676,317.435z"/>
					</g>
					<path style="fill:#AE7461;" d="M90.394,258.148c-2.944-3.663-6.612-7.674-11.308-7.48c-3.069,0.127-5.825,2.161-7.495,4.74
						c-1.67,2.578-2.404,5.647-2.876,8.682c-1.834,11.772-0.078,24.079,4.974,34.869c2.534,5.411,6.473,10.871,12.317,12.115
						l24.78-27.557C103.989,275.06,97.192,266.604,90.394,258.148z"/>
					<path style="fill:#AE7461;" d="M154.817,259.856c3.077-3.552,6.89-7.426,11.575-7.06c3.063,0.239,5.742,2.374,7.316,5.012
						c1.574,2.638,2.195,5.731,2.556,8.782c1.4,11.832-0.806,24.066-6.252,34.663c-2.731,5.314-6.868,10.626-12.754,11.654
						l-23.751-28.448C140.61,276.258,147.714,268.057,154.817,259.856z"/>
					<g>
						<path style="fill:#263238;" d="M108.222,283.601c0.008,0.03-0.449,0.174-1.264,0.457c-0.815,0.282-1.981,0.733-3.365,1.406
							c-2.763,1.328-6.388,3.721-9.405,7.329c-3.02,3.608-4.737,7.598-5.556,10.552c-0.418,1.482-0.656,2.708-0.79,3.56
							c-0.135,0.852-0.196,1.327-0.227,1.324c-0.013-0.001-0.014-0.121-0.002-0.349c0.016-0.227,0.024-0.565,0.08-0.995
							c0.088-0.863,0.286-2.107,0.675-3.612c0.759-3,2.458-7.068,5.523-10.728c3.061-3.661,6.765-6.052,9.584-7.328
							c1.413-0.648,2.603-1.063,3.437-1.302c0.413-0.131,0.745-0.198,0.966-0.255C108.1,283.609,108.219,283.588,108.222,283.601z"
							/>
					</g>
					<g>
						<path style="fill:#263238;" d="M121.642,281.304c-0.002-0.014,0.16-0.033,0.468-0.047c0.308-0.014,0.762-0.024,1.348-0.017
							c1.17,0.011,2.864,0.091,4.944,0.338c4.134,0.497,9.93,1.661,15.583,4.744c2.795,1.571,5.238,3.471,7.106,5.536
							c1.863,2.068,3.196,4.224,4.056,6.139c0.855,1.919,1.338,3.554,1.6,4.694c0.109,0.541,0.197,0.979,0.266,1.322
							c0.057,0.303,0.08,0.462,0.067,0.465c-0.013,0.002-0.062-0.152-0.143-0.449c-0.087-0.337-0.198-0.768-0.335-1.3
							c-0.305-1.123-0.825-2.731-1.702-4.615c-0.882-1.879-2.22-3.988-4.071-6.014c-1.855-2.021-4.27-3.886-7.03-5.438
							c-5.585-3.047-11.325-4.248-15.431-4.811c-2.065-0.281-3.749-0.402-4.914-0.459c-0.55-0.023-0.994-0.041-1.342-0.056
							C121.803,281.324,121.641,281.316,121.642,281.304z"/>
					</g>
					<g>
						<path style="fill:#263238;" d="M159.383,332.798c0,0,0.003,0.17-0.029,0.496c-0.031,0.326-0.091,0.809-0.196,1.437
							c-0.214,1.252-0.587,3.092-1.382,5.347c-0.8,2.24-2.011,4.943-4.139,7.552c-1.067,1.291-2.353,2.569-3.934,3.615
							c-1.572,1.054-3.408,1.901-5.426,2.425l0.017-0.005c-0.602,0.173-1.183,0.113-1.76-0.003
							c-0.577-0.117-1.127-0.344-1.655-0.614c-1.051-0.555-2.009-1.309-2.883-2.168c-1.744-1.73-3.201-3.833-4.564-6.062
							c-0.674-1.121-1.318-2.284-1.955-3.465c-0.646-1.175-1.288-2.375-2.098-3.466c-0.803-1.092-1.835-2.03-3.083-2.624
							c-1.243-0.604-2.635-0.903-4.044-1.095l0.068-0.004c-1.12,0.286-2.309,0.68-3.34,1.362c-1.905,1.225-2.896,3.35-3.837,5.332
							c-0.937,2.012-1.885,3.997-2.965,5.857c-1.074,1.862-2.268,3.628-3.723,5.11c-0.744,0.721-1.543,1.383-2.445,1.867
							c-0.901,0.469-1.894,0.83-2.963,0.63l0.019,0.004c-2.851-0.528-5.446-1.739-7.477-3.419c-2.036-1.675-3.57-3.687-4.705-5.706
							c-1.14-2.023-1.932-4.043-2.499-5.932c-0.564-1.892-0.933-3.65-1.114-5.238l0.001,0.008c-0.495-2.869-0.882-5.11-1.148-6.654
							c-0.123-0.748-0.218-1.327-0.286-1.738c-0.028-0.185-0.049-0.33-0.066-0.445c-0.013-0.1-0.018-0.151-0.013-0.152
							c0.005-0.001,0.018,0.049,0.04,0.147c0.024,0.113,0.054,0.257,0.093,0.44c0.08,0.409,0.192,0.984,0.337,1.728
							c0.288,1.54,0.706,3.775,1.241,6.637l0,0.002l0.001,0.006c0.195,1.563,0.578,3.314,1.152,5.186
							c0.577,1.871,1.376,3.868,2.513,5.861c1.133,1.989,2.655,3.962,4.659,5.597c1.998,1.64,4.539,2.813,7.334,3.324l0.019,0.005
							c0.864,0.162,1.855-0.155,2.694-0.61c0.859-0.462,1.632-1.104,2.355-1.808c1.417-1.45,2.593-3.191,3.655-5.038
							c1.07-1.849,2.008-3.815,2.945-5.833c0.471-1.007,0.961-2.026,1.578-2.992c0.613-0.965,1.407-1.858,2.393-2.498
							c1.087-0.718,2.318-1.123,3.464-1.415l0.034-0.009l0.034,0.005c1.436,0.196,2.868,0.502,4.167,1.134
							c1.305,0.621,2.395,1.616,3.219,2.742c0.833,1.126,1.477,2.338,2.123,3.515c0.636,1.184,1.273,2.34,1.94,3.455
							c1.349,2.217,2.787,4.302,4.493,6.003c0.854,0.845,1.786,1.581,2.794,2.118c0.506,0.261,1.03,0.479,1.57,0.591
							c0.528,0.116,1.107,0.157,1.578,0.023l0.017-0.005c1.986-0.507,3.792-1.33,5.343-2.357c1.56-1.019,2.834-2.27,3.896-3.538
							c2.119-2.561,3.346-5.231,4.167-7.449c0.816-2.232,1.217-4.059,1.46-5.301c0.119-0.623,0.195-1.102,0.242-1.426
							C159.352,332.964,159.383,332.798,159.383,332.798z"/>
					</g>
					<g>
						<path style="fill:#263238;" d="M123.329,325.148c0.102,0,0.174,2.021-0.09,4.495c-0.259,2.476-0.752,4.437-0.852,4.415
							c-0.11-0.022,0.211-2.001,0.467-4.455C123.116,327.149,123.217,325.147,123.329,325.148z"/>
					</g>
					<path style="fill:#263238;" d="M103.462,338.776c-0.084,0.471-0.535,0.785-1.006,0.701c-0.472-0.084-0.785-0.535-0.701-1.006
						c0.084-0.471,0.535-0.785,1.006-0.701C103.232,337.854,103.546,338.305,103.462,338.776z"/>
					<path style="fill:#263238;" d="M107.88,333.468c-0.084,0.472-0.535,0.785-1.006,0.701c-0.471-0.084-0.785-0.535-0.701-1.006
						c0.084-0.472,0.535-0.786,1.006-0.701C107.65,332.546,107.964,332.997,107.88,333.468z"/>
					<path style="fill:#263238;" d="M112.897,337.896c-0.084,0.471-0.535,0.785-1.006,0.701c-0.471-0.084-0.785-0.535-0.701-1.006
						c0.084-0.471,0.535-0.785,1.006-0.701C112.667,336.974,112.981,337.425,112.897,337.896z"/>
					<path style="fill:#263238;" d="M116.341,332.42c-0.084,0.472-0.535,0.786-1.006,0.701c-0.472-0.084-0.785-0.535-0.701-1.006
						c0.084-0.472,0.535-0.785,1.006-0.701C116.111,331.498,116.425,331.949,116.341,332.42z"/>
					<path style="fill:#263238;" d="M106.949,343.617c-0.084,0.471-0.535,0.786-1.006,0.701c-0.472-0.084-0.785-0.535-0.701-1.006
						c0.084-0.471,0.535-0.785,1.006-0.701C106.719,342.695,107.033,343.146,106.949,343.617z"/>
					<path style="fill:#263238;" d="M144.227,339.96c-0.084,0.472,0.23,0.922,0.701,1.006c0.472,0.084,0.922-0.23,1.006-0.701
						c0.084-0.471-0.23-0.922-0.701-1.006S144.312,339.488,144.227,339.96z"/>
					<path style="fill:#263238;" d="M140.305,334.238c-0.084,0.471,0.23,0.922,0.701,1.006c0.472,0.084,0.922-0.23,1.006-0.701
						c0.084-0.471-0.23-0.922-0.701-1.006C140.84,333.453,140.39,333.767,140.305,334.238z"/>
					<path style="fill:#263238;" d="M134.986,336.308c-0.084,0.471,0.23,0.922,0.701,1.006c0.472,0.084,0.922-0.23,1.006-0.701
						c0.084-0.472-0.23-0.922-0.701-1.006C135.52,335.522,135.07,335.836,134.986,336.308z"/>
					<path style="fill:#263238;" d="M132.731,330.326c-0.084,0.471,0.23,0.922,0.701,1.006c0.472,0.084,0.922-0.23,1.006-0.701
						c0.084-0.471-0.23-0.922-0.701-1.006C133.266,329.541,132.815,329.855,132.731,330.326z"/>
					<path style="fill:#263238;" d="M138.825,342.527c-0.084,0.471,0.23,0.922,0.701,1.006c0.471,0.084,0.922-0.23,1.006-0.701
						c0.084-0.472-0.23-0.922-0.701-1.006C139.36,341.742,138.909,342.056,138.825,342.527z"/>
					<g>
						<path style="fill:#263238;" d="M105.425,299.262c0.003,0.541-0.624,1.018-1.554,1.488c-0.936,0.466-2.199,0.948-3.626,1.424
							c-2.839,0.926-5.362,1.553-5.959,0.649c-0.279-0.448,0.035-1.228,0.872-2.065c0.834-0.83,2.193-1.707,3.868-2.257
							c1.67-0.558,3.316-0.676,4.502-0.466C104.722,298.239,105.424,298.736,105.425,299.262z"/>
					</g>
					<g>
						<path style="fill:#263238;" d="M148.552,298.298c-0.191,0.507-0.947,0.727-1.983,0.834c-1.041,0.101-2.393,0.1-3.896,0.034
							c-2.982-0.149-5.563-0.465-5.797-1.523c-0.101-0.518,0.471-1.134,1.552-1.617c1.075-0.477,2.658-0.811,4.42-0.726
							c1.76,0.075,3.338,0.553,4.372,1.174C148.261,297.092,148.738,297.807,148.552,298.298z"/>
					</g>
				</g>
				<g>
					<path style="fill:#263238;" d="M129.086,309.581c-0.018,0.061-0.845-0.156-2.201-0.386c-1.354-0.232-3.246-0.436-5.34-0.38
						c-2.094,0.061-3.972,0.371-5.311,0.678c-1.34,0.305-2.154,0.568-2.175,0.508c-0.009-0.025,0.185-0.116,0.546-0.26
						c0.359-0.148,0.893-0.326,1.562-0.514c1.336-0.379,3.239-0.737,5.367-0.8c2.127-0.057,4.047,0.195,5.402,0.498
						c0.678,0.15,1.221,0.298,1.589,0.426C128.894,309.475,129.093,309.555,129.086,309.581z"/>
				</g>
				<g style="opacity:0.2;">
					<path d="M88.693,302.431c-1.252,4.609-9.146-3.078-11.642-7.15c-2.496-4.072-3.471-8.868-4.404-13.552
						c-1.227-6.162-2.454-12.533-1.132-18.675c0.448-2.081,1.214-4.147,2.611-5.751c1.398-1.605,3.509-2.689,5.626-2.464
						c2.389,0.253,4.306,2.04,5.888,3.847c5.426,6.198,9.198,13.83,10.828,21.905c0.631,3.126,1.75,7.156-0.18,9.695
						C96.288,290.286,90.674,295.139,88.693,302.431z"/>
				</g>
				<g style="opacity:0.2;">
					<path d="M157.119,303.562c0.842,4.702,7.71-2.919,10.554-6.757c2.844-3.837,4.237-8.528,5.577-13.113
						c1.763-6.03,1.936-11.01,1.159-17.245c-0.263-2.112-1.003-4.921-2.471-8.002c-0.916-1.921-3.399-4.003-5.527-3.966
						c-2.402,0.043-4.794,1.64-6.529,3.302c-5.949,5.698-7.929,14.784-10.261,22.684c-0.903,3.059-2.372,6.975-0.672,9.674
						C148.949,290.141,155.787,296.124,157.119,303.562z"/>
				</g>
			</g>
		</g>
	</g>
</g>
</svg>
